<svg xmlns="http://www.w3.org/2000/svg" viewBox="0 0 640 640" role="img"><title>gift — original ReAI demo illustration</title><defs><filter id="shadow"><feDropShadow dx="8" dy="18" stdDeviation="9" flood-color="#282b2a" flood-opacity=".15"/></filter><linearGradient id="blue" x2="1" y2="1"><stop stop-color="#626bfd"/><stop offset="1" stop-color="#3034ba"/></linearGradient><linearGradient id="yellow" x2="1" y2="1"><stop stop-color="#fcf2a0"/><stop offset="1" stop-color="#e5d866"/></linearGradient><linearGradient id="green" x2="1" y2="1"><stop stop-color="#d0e785"/><stop offset="1" stop-color="#86b663"/></linearGradient></defs><g filter="url(#shadow)" transform="rotate(-7 320 320)"><path d="M142 232 443 198 495 238 197 274Z" fill="#9094ff"/><path d="M142 232 197 274 197 477 142 426Z" fill="#32349b"/><path d="M197 274 495 238 495 441 197 477Z" fill="url(#blue)"/><path d="M297 263 349 257 349 459 297 465Z" fill="url(#yellow)"/><path d="M239 222 294 216 349 257 297 263Z" fill="#fcf2a0"/><path d="M320 239C240 199 206 141 242 121c33-18 78 52 78 118Z" fill="none" stroke="#e9e585" stroke-width="28"/><path d="M322 238c28-109 90-143 107-98 16 39-43 91-107 98Z" fill="none" stroke="#f5f2a0" stroke-width="28"/><path d="M318 244 274 285M324 246 398 279" stroke="#faf2a0" stroke-width="25"/><path d="M400 332l16 15 30-35" fill="none" stroke="#eeeeff" stroke-width="10" stroke-linecap="round"/></g></svg>
